<svg width="31" height="31" viewBox="0 0 31 31" fill="none" xmlns="http://www.w3.org/2000/svg">
<g id="Frame" clip-path="url(#clip0_1_340)">
<path id="Vector" d="M7.08252 14.5547L9.58252 12.0547L16.4575 18.9297L20.8325 14.5547L24.5825 18.3047V6.92969H7.08252V14.5547ZM5.83252 4.42969H25.8325C26.164 4.42969 26.482 4.56138 26.7164 4.7958C26.9508 5.03022 27.0825 5.34817 27.0825 5.67969V25.6797C27.0825 26.0112 26.9508 26.3292 26.7164 26.5636C26.482 26.798 26.164 26.9297 25.8325 26.9297H5.83252C5.501 26.9297 5.18306 26.798 4.94864 26.5636C4.71422 26.3292 4.58252 26.0112 4.58252 25.6797V5.67969C4.58252 5.34817 4.71422 5.03022 4.94864 4.7958C5.18306 4.56138 5.501 4.42969 5.83252 4.42969ZM20.2075 13.1797C19.7102 13.1797 19.2333 12.9821 18.8817 12.6305C18.5301 12.2789 18.3325 11.802 18.3325 11.3047C18.3325 10.8074 18.5301 10.3305 18.8817 9.97886C19.2333 9.62723 19.7102 9.42969 20.2075 9.42969C20.7048 9.42969 21.1817 9.62723 21.5333 9.97886C21.885 10.3305 22.0825 10.8074 22.0825 11.3047C22.0825 11.802 21.885 12.2789 21.5333 12.6305C21.1817 12.9821 20.7048 13.1797 20.2075 13.1797Z" fill="white"/>
</g>
<defs>
<clipPath id="clip0_1_340">
<rect width="30" height="30" fill="white" transform="translate(0.83252 0.679688)"/>
</clipPath>
</defs>
</svg>
