<svg width="21" height="21" viewBox="0 0 21 21" fill="none" xmlns="http://www.w3.org/2000/svg">
<g id="#07 Icon/Quote Large">
<path id="Vector" d="M9.26987 4.12329L8.66067 3.15002C4.4431 6.09414 2.1 9.67088 2.1 12.615C2.1 15.4618 4.11506 16.8 5.82552 16.8C7.98117 16.8 9.50418 14.9022 9.50418 12.907C9.50418 11.2281 8.47322 9.79254 7.0908 9.25724C6.69247 9.11125 6.31757 8.9896 6.31757 8.28398C6.31757 7.38371 6.95021 6.04548 9.26987 4.12329ZM18.572 4.12329L17.9628 3.15002C13.7921 6.09414 11.4021 9.67088 11.4021 12.615C11.4021 15.4618 13.464 16.8 15.1745 16.8C17.3536 16.8 18.9 14.9022 18.9 12.907C18.9 11.2281 17.8456 9.79254 16.4163 9.25724C16.018 9.11125 15.6665 8.9896 15.6665 8.28398C15.6665 7.38371 16.3226 6.04548 18.572 4.12329Z" fill="#E1E8F1"/>
</g>
</svg>
