<svg width="24" height="24" viewBox="0 0 24 24" fill="none" xmlns="http://www.w3.org/2000/svg">
<g id="Icon/Fill/TwitterLogo">
<path id="Vector" d="M23.0344 7.28446L20.2031 10.1063C19.6406 16.6595 14.1094 21.7501 7.50001 21.7501C6.14063 21.7501 5.01563 21.5345 4.16251 21.1126C3.47813 20.7657 3.19688 20.4001 3.12188 20.2876C3.05983 20.1933 3.01984 20.0863 3.0049 19.9744C2.98996 19.8626 3.00046 19.7488 3.0356 19.6416C3.07074 19.5344 3.12963 19.4364 3.20788 19.3551C3.28612 19.2738 3.3817 19.2112 3.48751 19.172C3.50626 19.1626 5.71876 18.3188 7.15313 16.697C6.26358 16.0636 5.48171 15.2912 4.83751 14.4095C3.55313 12.6657 2.19376 9.63759 3.00938 5.11884C3.03502 4.9845 3.09646 4.85958 3.18722 4.75727C3.27798 4.65496 3.39468 4.57906 3.52501 4.53759C3.65574 4.49478 3.79574 4.48875 3.92967 4.52017C4.0636 4.55159 4.18632 4.61923 4.28438 4.71571C4.31251 4.75321 7.43438 7.82821 11.25 8.82196V8.25009C11.2537 7.65544 11.3745 7.06735 11.6054 6.51938C11.8364 5.97141 12.173 5.4743 12.5961 5.05643C13.0192 4.63857 13.5205 4.30813 14.0713 4.08398C14.6221 3.85984 15.2116 3.74638 15.8063 3.75009C16.5867 3.76122 17.351 3.97432 18.0246 4.36863C18.6982 4.76294 19.2582 5.32502 19.65 6.00009H22.5C22.6481 5.99962 22.793 6.043 22.9164 6.12475C23.0399 6.2065 23.1364 6.32296 23.1938 6.45946C23.2478 6.598 23.2615 6.749 23.2333 6.895C23.2051 7.04099 23.1361 7.17602 23.0344 7.28446Z" fill="white"/>
</g>
</svg>
