<svg width="24" height="24" viewBox="0 0 24 24" fill="none" xmlns="http://www.w3.org/2000/svg">
<g id="Icon/Fill/FacebookLogo">
<path id="Vector" d="M21.75 12C21.7452 14.382 20.8709 16.6804 19.2915 18.4636C17.712 20.2467 15.536 21.392 13.1719 21.6843C13.1191 21.6895 13.0659 21.6837 13.0154 21.6673C12.965 21.6509 12.9186 21.6243 12.8789 21.5891C12.8393 21.5539 12.8074 21.5108 12.7852 21.4627C12.763 21.4146 12.751 21.3623 12.75 21.3093V14.25H15C15.1026 14.2502 15.2041 14.2293 15.2983 14.1887C15.3925 14.1481 15.4773 14.0887 15.5476 14.014C15.6179 13.9393 15.6721 13.851 15.7069 13.7545C15.7418 13.658 15.7564 13.5554 15.75 13.4531C15.7334 13.2592 15.6439 13.0787 15.4995 12.9482C15.355 12.8177 15.1665 12.7469 14.9719 12.75H12.75V10.5C12.75 10.1021 12.908 9.72061 13.1893 9.4393C13.4706 9.158 13.8522 8.99996 14.25 8.99996H15.75C15.8526 9.00016 15.9541 8.97932 16.0483 8.93874C16.1425 8.89815 16.2273 8.83867 16.2976 8.76399C16.3679 8.6893 16.4221 8.60099 16.4569 8.50451C16.4918 8.40804 16.5064 8.30545 16.5 8.20309C16.4834 8.00915 16.3939 7.82873 16.2495 7.69823C16.105 7.56774 15.9165 7.49688 15.7219 7.49996H14.25C13.4544 7.49996 12.6913 7.81603 12.1287 8.37864C11.5661 8.94125 11.25 9.70431 11.25 10.5V12.75H9C8.89744 12.7498 8.79592 12.7706 8.70173 12.8112C8.60754 12.8518 8.52268 12.9113 8.45238 12.9859C8.38209 13.0606 8.32786 13.1489 8.29305 13.2454C8.25824 13.3419 8.24359 13.4445 8.25 13.5468C8.26659 13.7408 8.35613 13.9212 8.50055 14.0517C8.64497 14.1822 8.83351 14.253 9.02813 14.25H11.25V21.3093C11.2503 21.3619 11.2395 21.4139 11.2183 21.4621C11.1972 21.5102 11.1662 21.5533 11.1273 21.5887C11.0884 21.6241 11.0425 21.6508 10.9925 21.6673C10.9426 21.6838 10.8898 21.6896 10.8375 21.6843C5.8875 21.0843 2.0625 16.7812 2.25938 11.6343C2.36989 9.09257 3.46955 6.69468 5.32363 4.9525C7.1777 3.21032 9.63932 2.26186 12.183 2.30958C14.7268 2.3573 17.1511 3.39741 18.9385 5.2079C20.7259 7.01839 21.7349 9.45584 21.75 12Z" fill="white"/>
</g>
</svg>
